<?xml version="1.0" encoding="UTF-8"?>
<!DOCTYPE svg PUBLIC "-//W3C//DTD SVG 1.1//EN" "http://www.w3.org/Graphics/SVG/1.1/DTD/svg11.dtd">
<!-- Creator: CorelDRAW -->
<svg xmlns="http://www.w3.org/2000/svg" xml:space="preserve" width="508mm" height="338.667mm" version="1.1" style="shape-rendering:geometricPrecision; text-rendering:geometricPrecision; image-rendering:optimizeQuality; fill-rule:evenodd; clip-rule:evenodd"
viewBox="0 0 50800 33866.66"
 xmlns:xlink="http://www.w3.org/1999/xlink"
 xmlns:xodm="http://www.corel.com/coreldraw/odm/2003">
 <defs>
  <style type="text/css">
   <![CDATA[
    .str0 {stroke:white;stroke-width:29.38;stroke-linecap:round;stroke-linejoin:round;stroke-miterlimit:22.9256}
    .fil0 {fill:#0099B5;fill-rule:nonzero}
   ]]>
  </style>
 </defs>
 <g id="Слой_x0020_1">
  <metadata id="CorelCorpID_0Corel-Layer"/>
  <g id="_2047626553872">
   <polygon class="fil0 str0" points="21341.75,12134.55 21499.92,12388.92 21572.73,12453.11 21966.88,12555.32 21989.48,12567.22 21989.48,12586.22 21979.42,12610.01 21582.76,13320.81 21208.69,14003.09 21128.36,14181.39 21095.72,14568.88 21095.72,14590.28 21100.74,14609.3 21266.42,14899.34 21296.56,14958.77 21289.02,14968.26 21271.45,14984.91 20957.63,15153.71 20927.52,15179.85 20927.52,15203.61 20940.06,15229.78 21565.19,16045.16 21979.42,16591.95 21979.42,16618.09 21650.55,16767.87 21572.73,16791.63 21552.65,16784.51 21532.54,16772.61 21525.03,16767.87 21351.81,16503.98 21103.26,16242.49 21017.9,16180.68 20950.11,16142.63 20879.82,16114.11 20601.13,16049.92 20523.32,16049.92 20493.18,16057.07 20468.07,16068.95 20445.48,16085.59 20420.39,16111.73 20362.63,16218.7 20337.53,16237.73 20299.87,16240.11 20267.25,16228.23 20257.2,16221.08 20234.6,16211.58 20217.03,16156.9 20199.47,16130.75 20121.64,16049.92 20094.01,16033.28 20008.66,16019.02 19976.03,16007.14 19930.84,15966.71 19878.11,15912.05 19863.06,15900.14 19842.98,15893.03 19805.3,15885.88 19461.37,15588.74 19413.66,15538.81 19376.01,15474.62 19350.9,15403.32 19335.85,15372.42 19310.74,15358.15 19242.95,15358.15 19210.3,15351.01 19185.2,15334.37 19165.11,15308.23 19124.95,15239.28 19107.38,15191.73 19069.73,15134.69 19057.16,15103.78 19057.16,15020.57 19052.14,14982.53 19032.05,14965.88 18959.27,14958.77 18886.45,14942.12 18871.4,14932.6 18841.26,14911.22 18816.15,14913.6 18808.61,14918.34 18781.02,14942.12 18705.69,14992.05 18675.55,15003.93 18635.39,15006.31 18612.8,15011.07 18602.77,15018.19 18597.74,15025.34 18600.25,15034.83 18605.28,15041.98 18620.34,15075.24 18622.85,15094.26 18607.77,15137.07 18590.2,15153.71 18555.06,15106.17 18512.39,15070.5 18359.25,15015.81 18283.92,15018.19 18263.84,15008.69 18246.27,14982.53 18248.78,14958.77 18266.35,14939.74 18291.46,14932.6 18293.97,14932.6 18379.33,14901.7 18374.3,14828.01 18346.68,14735.3 18359.25,14649.71 18384.33,14633.06 18414.46,14621.18 18437.06,14604.54 18442.09,14573.64 18424.52,14549.88 18391.87,14530.86 18326.6,14507.07 18273.86,14461.91 18233.7,14402.48 18188.51,14354.93 18123.24,14347.79 18057.96,14354.93 17929.93,14343.05 17621.14,14388.22 17545.81,14385.84 17510.67,14373.96 17452.94,14314.51 17417.78,14302.63 17342.48,14295.51 17302.29,14271.72 17282.21,14238.44 17264.64,14095.8 17252.1,14060.16 17229.5,14029.23 17136.61,13936.52 17101.44,13915.14 17066.31,13919.88 17023.63,13938.9 16980.95,13950.78 16938.27,13953.16 16873,13941.28 16770.05,13898.5 16672.16,13810.53 16358.33,13461.07 16323.2,13439.69 16295.57,13482.47 16275.49,13641.75 16245.36,13696.41 16185.11,13715.44 16109.78,13710.7 16034.48,13694.06 15878.83,13632.25 15841.15,13632.25 15816.04,13639.37 15738.23,13684.53 15682.99,13708.32 15655.39,13727.34 15642.82,13753.48 15650.36,13791.5 15677.98,13812.91 15861.23,13896.12 15911.45,13934.14 15956.64,13998.33 15996.81,14086.3 16104.76,14252.7 16162.52,14319.27 16180.08,14333.53 16187.62,14350.17 16180.08,14366.81 16162.52,14376.34 16069.62,14390.6 16044.51,14383.46 16029.46,14359.7 16029.46,14331.15 16036.97,14297.89 16042,14264.61 16026.94,14198.04 15989.29,14150.49 15939.08,14114.82 15795.96,14050.64 15763.34,14043.52 15735.72,14048.26 15682.99,14069.66 15660.39,14072.04 15635.31,14060.16 15602.66,14012.62 15582.58,13993.59 15554.95,13984.07 15522.33,13981.69 15489.68,13988.83 15462.06,14000.71 15447,14017.35 15434.46,14041.14 15396.79,14081.54 15356.62,14098.18 15331.51,14117.21 15341.57,14167.13 15371.68,14231.32 15374.19,14259.84 15361.65,14305.01 15301.4,14433.38 15281.32,14454.79 15226.08,14473.78 15213.53,14497.57 15223.56,14526.09 15243.64,14547.5 15246.16,14564.14 15216.02,14585.52 15185.91,14592.66 15088,14587.9 15060.38,14595.04 14977.53,14633.06 14944.9,14637.83 14934.85,14559.38 14922.3,14511.83 14902.22,14473.78 14874.6,14442.88 14839.45,14416.74 14761.63,14376.34 14698.86,14369.2 14683.8,14364.43 14668.74,14352.55 14648.65,14338.29 14618.53,14293.13 14600.95,14278.87 14575.85,14274.1 14538.19,14276.49 14455.34,14302.63 14392.58,14335.91 14354.92,14369.2 14339.85,14383.46 14294.67,14473.78 14111.39,15018.19 14106.38,15046.71 14106.38,15056.24 13975.83,15115.66 13933.15,15170.35 13933.15,15241.66 13965.78,15386.68 13960.76,15457.98 13950.72,15517.43 13948.21,15574.48 13975.83,15641.05 14008.46,15690.97 14023.53,15740.89 14028.55,15793.17 14028.55,15857.36 14036.08,15909.67 14053.65,15959.6 14083.78,16007.14 14113.91,16040.43 14136.5,16054.69 14156.59,16064.19 14231.9,16080.83 14241.95,16090.33 14239.43,16102.23 14221.86,16121.26 14191.73,16142.63 14123.95,16173.54 14093.82,16206.82 14048.63,16282.89 14021.02,16299.53 13842.77,16263.87 13704.69,16237.73 13378.32,16218.7 13024.33,16202.06 12753.19,16187.8 12517.2,16175.92 12514.69,15327.25 12514.69,14901.7 12514.69,14473.78 12514.69,14045.87 12514.69,13615.61 12514.69,13182.94 12514.69,12747.88 12514.69,12312.85 12514.69,11875.42 12512.18,11438.01 12512.18,10998.22 12512.18,10553.66 12512.18,10111.48 12512.18,9664.55 12512.18,9215.25 12517.2,9212.87 12652.77,9170.08 12788.34,9129.67 12926.42,9086.88 13200.07,9003.67 13335.64,8960.88 13473.72,8920.47 13609.29,8877.68 13882.94,8794.47 14021.02,8754.06 14156.59,8711.27 14294.67,8670.85 14430.24,8628.06 14703.88,8544.86 14887.15,8490.18 15067.91,8437.88 15251.19,8385.58 15434.46,8330.9 15517.3,8307.13 15602.66,8283.35 15770.85,8235.81 15858.72,8212.04 16034.48,8164.49 16122.35,8140.72 16240.33,8107.43 16275.49,8109.81 16315.66,8126.45 16328.2,8135.96 16325.68,8138.34 16303.09,8195.39 16298.09,8231.05 16290.55,8252.45 16270.47,8292.86 16265.44,8316.64 16265.44,8371.31 16260.41,8385.58 16255.41,8390.33 16242.84,8397.46 16237.82,8402.22 16232.82,8409.35 16220.25,8445.01 16167.54,8513.95 16160,8525.84 16157.49,8530.59 16142.43,8544.86 16074.65,8635.19 16067.11,8649.46 16064.59,8663.72 16059.57,8713.64 16042,8765.94 16021.92,8806.36 16014.38,8837.26 16006.86,8899.07 15999.32,8929.98 15986.78,8960.88 15971.7,8989.41 15961.67,9001.29 15941.59,9020.31 15931.53,9032.2 15926.51,9046.46 15924.02,9060.72 15918.99,9089.25 15913.97,9117.78 15816.04,9343.62 15803.5,9431.58 15798.48,9488.64 15800.99,9545.69 15831.13,9628.9 15861.23,9702.59 15901.43,9764.4 15926.51,9849.98 15924.02,9895.15 15913.97,9926.06 15901.43,9954.58 15871.29,9973.6 15836.15,10021.15 15828.61,10054.43 15818.56,10073.45 15811.04,10087.71 15808.53,10104.35 15818.56,10175.67 15843.67,10254.12 15881.32,10287.4 15908.94,10315.93 15966.7,10325.44 16036.97,10320.68 16109.78,10282.65 16185.11,10223.22 16250.38,10166.16 16293.06,10113.86 16315.66,10080.58 16333.23,10049.67 16363.36,10016.39 16398.5,9968.85 16431.15,9916.55 16456.26,9880.89 16481.34,9847.61 16488.88,9823.83 16468.8,9788.17 16438.66,9776.29 16403.52,9762.02 16423.61,9807.19 16398.5,9814.32 16363.36,9804.82 16348.28,9781.04 16363.36,9707.35 16380.93,9674.06 16390.96,9650.29 16421.09,9640.78 16441.18,9631.27 16471.31,9640.78 16478.85,9678.82 16486.37,9702.59 16506.45,9721.61 16536.58,9728.74 16584.29,9716.85 16609.4,9688.33 16601.86,9650.29 16569.21,9621.76 16551.64,9593.24 16566.72,9543.31 16569.21,9481.5 16551.64,9417.32 16539.1,9360.26 16539.1,9319.85 16569.21,9312.72 16609.4,9305.59 16629.48,9262.8 16636.99,9215.25 16649.56,9179.59 16659.59,9122.53 16626.97,9103.52 16594.32,9127.29 16569.21,9174.83 16513.99,9205.74 16478.85,9210.49 16441.18,9239.02 16398.5,9210.49 16395.98,9165.33 16413.55,9117.78 16438.66,9063.1 16461.26,9015.56 16506.45,8968.01 16529.04,8927.6 16569.21,8889.56 16611.88,8849.15 16644.53,8834.88 16576.75,8787.34 16539.1,8742.17 16506.45,8620.93 16493.91,8542.48 16488.88,8490.18 16493.91,8430.75 16513.99,8361.8 16536.58,8304.75 16549.13,8276.22 16692.24,8368.93 16878,8487.8 17006.06,8568.63 17349.99,8792.09 17573.43,8932.35 17568.41,8941.86 17533.27,8987.03 17513.19,9025.07 17485.56,9113.03 17462.97,9170.08 17420.29,9239.02 17387.64,9277.06 17372.59,9346 17355.02,9412.56 17332.42,9462.49 17307.32,9505.28 17257.1,9569.46 17234.5,9617.01 17216.93,9664.55 17206.91,9712.1 17224.47,9809.57 17262.12,9892.77 17307.32,9949.83 17427.83,10080.58 17608.6,10251.74 17703.98,10339.7 17779.31,10392 17854.61,10449.06 17872.2,10465.7 17877.2,10491.85 17869.69,10546.53 17839.55,10589.32 17771.76,10632.11 17749.17,10689.16 17724.06,10746.23 17691.44,10803.27 17714.03,10855.58 17786.82,10867.46 17852.12,10862.7 17909.85,10846.06 17947.5,10812.77 18000.23,10808.04 18057.96,10817.53 18113.21,10798.51 18173.46,10760.49 18256.3,10708.18 18293.97,10660.64 18301.49,10636.86 18281.41,10615.47 18253.78,10613.09 18228.7,10603.58 18213.62,10589.32 18208.59,10572.68 18208.59,10551.28 18216.13,10537.02 18226.19,10513.25 18243.75,10498.98 18256.3,10484.72 18281.41,10484.72 18319.06,10487.09 18359.25,10494.23 18386.84,10487.09 18409.44,10465.7 18419.49,10439.55 18439.57,10375.36 18449.63,10313.55 18442.09,10251.74 18424.52,10149.52 18399.41,10071.07 18366.76,10006.88 18356.73,9945.07 18354.22,9892.77 18379.33,9859.49 18404.44,9840.47 18432.03,9809.57 18452.11,9766.78 18464.68,9712.1 18464.68,9640.78 18467.2,9548.07 18467.2,9500.52 18494.82,9519.54 18778.5,9697.84 19044.62,9869 19290.66,10021.15 19501.53,10156.65 19805.3,10346.84 19895.68,10403.89 19933.36,10444.3 19958.44,10496.6 19968.49,10541.77 19978.55,10641.62 19993.6,10686.79 20078.96,10817.53 20244.66,10991.07 20324.98,11071.9 20405.31,11155.12 20508.26,11266.85 20591.1,11357.18 20759.3,11542.6 20842.16,11632.95 20925.01,11723.28 21007.85,11813.61 21171.04,11991.91 21281.51,12110.76 21339.24,12134.55 "/>
   <polygon class="fil0 str0" points="28243.25,16484.98 28243.25,16492.12 28065,16561.05 28052.43,16589.57 28034.86,16610.97 28057.46,16867.73 28059.97,16877.22 28065,16884.37 28072.51,16901.01 28085.08,16915.27 28095.11,16920.03 28115.19,16931.91 28245.76,16965.2 28253.28,16972.31 28258.3,16979.46 28263.33,16986.58 28263.33,17000.84 28263.33,17017.48 28258.3,17050.76 28258.3,17081.67 28260.82,17091.19 28273.36,17122.1 28306.01,17176.76 28265.84,17274.23 28042.4,17685.5 28014.78,17659.36 27997.21,17637.95 27992.19,17630.84 27989.67,17623.69 27987.16,17616.58 27987.16,17607.05 27997.21,17578.53 27997.21,17561.89 27994.7,17554.74 27992.19,17547.62 27941.97,17492.94 27899.29,17457.3 27884.24,17450.15 27871.67,17447.77 27856.61,17452.53 27751.18,17521.48 27718.53,17535.75 27688.42,17540.48 27665.82,17535.75 27638.2,17526.22 27613.09,17511.96 27582.95,17490.58 27560.39,17481.06 27540.28,17478.67 27520.2,17483.44 27502.63,17497.7 27485.06,17514.34 27472.52,17535.75 27459.95,17559.5 27442.38,17609.43 27437.35,17637.95 27437.35,17666.48 27449.92,17699.76 27459.95,17714.02 27467.49,17728.31 27464.98,17742.57 27454.92,17763.95 27444.9,17773.47 27414.76,17785.35 27407.22,17797.23 27407.22,17811.49 27424.81,17854.3 27429.81,17918.49 27419.79,17958.89 27399.7,17999.29 27397.19,18011.2 27399.7,18023.08 27407.22,18032.58 27427.33,18051.6 27427.33,18068.25 27419.79,18080.13 27382.14,18130.05 27369.57,18153.84 27362.03,18177.6 27349.49,18218.03 27311.84,18303.59 27309.32,18315.47 27311.84,18327.38 27319.35,18329.76 27329.4,18329.76 27357.03,18325 27369.57,18325 27382.14,18327.38 27394.68,18332.11 27402.22,18344.02 27407.22,18353.52 27407.22,18367.78 27399.7,18384.42 27384.62,18398.68 27291.75,18481.9 27274.16,18491.39 26960.36,18553.2 26897.58,18541.32 26834.82,18503.3 26804.71,18512.8 26777.09,18498.54 26749.46,18479.51 26689.22,18458.14 26666.62,18434.35 26628.97,18384.42 26613.89,18382.04 26608.86,18379.66 26581.27,18374.92 26448.21,18317.85 26425.61,18317.85 26415.56,18322.62 26408.05,18329.76 26400.51,18348.76 26395.48,18360.66 26392.96,18367.78 26395.48,18391.57 26390.45,18427.21 26390.45,18436.73 26387.94,18446.23 26382.94,18450.99 26380.42,18460.49 26342.75,18512.8 26340.26,18524.68 26345.26,18531.82 26355.31,18531.82 26365.34,18534.2 26372.88,18538.94 26380.42,18546.08 26382.94,18555.58 26380.42,18565.11 26375.4,18579.37 26352.8,18626.91 26347.77,18638.79 26322.66,18731.5 26312.64,18752.91 26300.07,18760.03 26282.5,18767.17 26239.82,18767.17 26199.66,18762.41 26156.98,18743.41 26106.76,18717.24 26096.74,18714.86 26086.68,18719.62 26079.14,18731.5 26076.63,18743.41 26071.63,18774.31 26059.06,18783.81 26046.52,18793.31 25958.65,18814.71 25888.35,18824.21 25873.3,18826.59 25865.76,18831.36 25858.22,18838.5 25855.7,18848 25865.76,18869.4 25910.95,18916.95 25938.57,18940.71 25951.11,18952.59 25963.68,18969.23 26006.36,19121.39 26008.87,19135.65 26006.36,19161.79 26003.84,19178.44 25998.81,19192.7 25956.14,19285.41 25956.14,19294.93 25973.71,19349.6 26051.55,19497 26023.92,19513.64 25878.3,19544.54 25875.81,19494.61 25873.3,19482.73 25858.22,19435.19 25850.7,19416.17 25843.16,19404.29 25820.56,19375.76 25795.46,19349.6 25772.86,19337.72 25737.72,19325.84 25710.1,19311.58 25697.56,19273.53 25692.53,19235.48 25692.53,19204.58 25679.97,19164.18 25654.86,19123.77 25479.12,19045.3 25466.58,19023.92 25443.98,19021.54 25381.22,19047.68 25353.6,19047.68 25333.52,19035.8 25328.49,19021.54 25320.98,19004.9 25318.47,18995.4 25250.68,18959.73 25208,18933.59 25102.54,18793.31 25079.94,18748.15 25100.05,18702.98 25125.13,18653.05 25172.84,18596.01 25177.87,18588.87 25187.92,18576.99 25200.46,18553.2 25288.33,18515.18 25315.95,18496.16 25341.06,18472.4 25361.14,18446.23 25431.44,18313.12 25451.52,18296.48 25466.58,18294.09 25476.63,18286.95 25486.66,18279.83 25496.72,18277.45 25539.39,18272.69 25541.91,18267.95 25534.37,18256.05 25511.77,18227.52 25469.09,18187.12 25454.04,18160.96 25451.52,18153.84 25451.52,18149.08 25459.04,18146.69 25471.61,18134.81 25496.72,18068.25 25459.04,18032.58 25451.52,17996.94 25451.52,17982.68 25454.04,17963.66 25459.04,17947.01 25471.61,17932.75 25496.72,17918.49 25546.91,17911.35 25579.56,17911.35 25609.69,17918.49 25637.29,17942.25 25669.94,17963.66 25702.56,17973.15 25873.3,17975.54 25890.86,17944.63 25923.49,17844.78 25948.6,17821.02 25981.25,17785.35 26021.41,17668.86 26023.92,17647.48 26038.98,17623.69 26051.55,17614.19 26064.09,17609.43 26079.14,17611.81 26154.47,17626.07 26174.55,17628.46 26177.06,17607.05 26169.52,17585.67 26167.01,17547.62 26167.01,17502.46 26169.52,17454.91 26177.06,17409.75 26212.2,17295.64 26141.93,17314.66 25700.05,17286.11 25554.45,17252.85 25504.23,17224.3 25454.04,17186.28 25433.93,17131.59 25421.39,17084.05 25388.76,16898.63 25376.2,16855.85 25358.63,16853.46 25313.44,16917.65 25265.73,16936.65 25202.97,16948.56 25009.67,16955.67 24959.45,16974.7 24931.83,16988.96 24886.64,17150.62 24854.02,17181.52 24459.84,17136.36 24397.08,17114.95 24377,17074.55 24374.48,16955.67 24366.97,16893.87 24336.83,16851.08 24309.21,16827.3 24281.59,16820.18 24251.48,16829.68 24223.86,16853.46 24198.75,16889.1 24110.88,17060.29 24007.96,17207.66 23832.22,17264.73 23834.73,17229.07 23782,17179.14 23749.35,17124.48 23310.01,16867.73 23084.09,16746.47 22893.27,16675.16 22765.24,16649.02 22730.07,16630 22531.74,16299.56 22288.22,16023.78 22250.57,15964.36 22205.38,15862.12 22082.37,15859.74 21565.19,16045.19 20940.06,15229.78 20927.52,15203.64 20927.52,15179.85 20957.63,15153.71 21271.45,14984.93 21289.05,14968.29 21296.56,14958.77 21266.45,14899.34 21100.74,14609.3 21095.72,14590.28 21095.72,14568.9 21128.36,14181.39 21208.69,14003.09 21582.76,13320.84 21979.42,12610.01 21989.48,12586.25 21989.48,12567.22 21966.88,12555.34 21572.73,12453.11 21499.92,12388.92 21341.75,12134.55 21462.27,12113.17 21565.19,12096.53 21750.98,12063.25 21916.66,12034.72 21999.51,12020.46 22132.56,11999.06 22265.62,11977.65 22930.92,11875.44 23063.98,11854.04 23287.42,11875.44 23508.34,11894.44 23731.79,11913.46 23952.71,11932.49 24156.07,11949.13 24356.92,11965.77 24560.28,11984.8 24761.12,12001.44 24841.45,12008.56 24891.67,11994.3 25039.78,11918.23 25180.38,11844.54 25325.98,11766.09 25466.58,11692.38 25494.2,11682.88 25519.31,11673.36 25566.99,11680.5 25589.58,11701.9 25614.69,11720.9 25772.86,11915.85 25928.52,12110.79 26001.33,12184.48 26074.14,12255.81 26224.77,12346.14 26375.4,12434.09 26433.13,12484.01 26556.16,12726.5 26636.49,12881.02 26744.44,13094.99 26839.85,13278.03 26864.95,13280.41 27075.83,13173.44 27284.21,13064.08 27254.08,13532.4 27221.45,13998.36 27213.91,14098.21 27201.37,14131.47 27166.21,14143.37 27158.7,14169.51 27151.15,14533.24 27146.13,14894.58 27151.15,14915.98 27163.7,14925.48 27339.43,14925.48 27497.6,14925.48 27658.28,14927.86 27834.02,14927.86 27844.07,14925.48 27856.61,14927.86 27866.67,14927.86 27874.18,14932.63 27899.29,15167.97 27924.4,15400.94 27969.59,15629.17 28017.29,15857.39 28080.05,16130.75 28142.81,16399.39 28175.46,16437.43 28208.09,16475.48 "/>
   <polygon class="fil0 str0" points="25878.3,19544.57 25810.51,19594.49 25664.88,19732.37 25647.32,19746.63 25629.75,19753.75 25614.69,19751.39 25597.1,19753.75 25587.07,19758.51 25577.02,19765.65 25466.55,19879.77 25454.01,19898.77 25443.96,19913.03 25441.44,19922.55 25441.44,19932.05 25443.96,19941.57 25446.47,19948.69 25454.01,19965.33 25464.04,19979.6 25509.23,20034.28 25514.26,20041.4 25519.28,20048.55 25519.28,20060.43 25516.77,20074.69 25509.23,20081.83 25501.72,20086.57 25258.19,20169.78 25180.35,20195.95 24979.51,20274.39 24911.72,20317.18 24778.66,20457.43 24756.07,20478.84 24710.88,20424.15 24675.74,20405.12 24633.06,20409.89 24520.08,20462.2 24482.43,20471.69 24439.76,20462.2 24394.57,20440.79 24161.07,20281.51 23957.71,20143.64 23794.54,20034.28 23706.68,19946.31 23551.02,19739.49 23458.13,19653.92 23254.77,19518.4 22772.75,19192.72 22536.77,19031.06 22338.44,18895.57 22167.7,18781.46 22082.35,18700.63 22067.29,18691.1 21961.83,18565.11 21946.77,18517.56 21921.66,18415.35 21916.66,18374.92 21921.66,18336.9 21934.23,18303.62 21941.75,18270.33 21936.75,18232.29 21891.56,18139.58 21886.53,18101.56 21886.53,18054.01 21878.99,18018.35 21868.96,17985.06 21831.28,17913.73 21821.26,17880.47 21816.23,17804.38 21803.69,17787.73 21683.17,17721.19 21612.87,17702.17 21580.25,17678.38 21575.22,17666.5 21878.99,17307.54 21954.31,17153 21936.75,17091.19 21889.04,17022.27 21650.55,16767.9 21979.42,16618.12 21979.42,16591.98 21565.17,16045.19 22082.35,15859.77 22205.38,15862.15 22250.54,15964.36 22288.22,16023.81 22531.74,16299.56 22730.07,16630 22765.21,16649.02 22893.24,16675.19 23084.06,16746.49 23310.01,16867.73 23749.35,17124.48 23781.98,17179.17 23834.71,17229.09 23832.19,17264.73 24007.93,17207.69 24110.88,17060.29 24198.75,16889.13 24223.83,16853.46 24251.45,16829.7 24281.59,16820.18 24309.21,16827.32 24336.81,16851.08 24366.94,16893.89 24374.48,16955.7 24377,17074.55 24397.08,17114.98 24459.84,17136.36 24853.99,17181.55 24886.64,17150.64 24931.8,16988.98 24959.43,16974.72 25009.64,16955.7 25202.95,16948.56 25265.71,16936.68 25313.41,16917.65 25358.6,16853.46 25376.17,16855.85 25388.74,16898.63 25421.36,17084.07 25433.93,17131.62 25454.01,17186.28 25504.23,17224.33 25554.42,17252.85 25700.05,17286.14 26141.9,17314.66 26212.2,17295.64 26177.04,17409.75 26169.52,17454.91 26167.01,17502.46 26167.01,17547.65 26169.52,17585.67 26177.04,17607.08 26174.52,17628.46 26154.44,17626.1 26079.14,17611.84 26064.06,17609.46 26051.52,17614.19 26038.98,17623.72 26023.9,17647.48 26021.38,17668.88 25981.22,17785.38 25948.6,17821.02 25923.49,17844.8 25890.84,17944.66 25873.27,17975.56 25702.56,17973.18 25669.91,17963.66 25637.29,17942.28 25609.67,17918.49 25579.53,17911.37 25546.91,17911.37 25496.69,17918.49 25471.58,17932.75 25459.04,17947.01 25454.01,17963.66 25451.5,17982.68 25451.5,17996.94 25459.04,18032.61 25496.69,18068.27 25471.58,18134.84 25459.04,18146.72 25451.5,18149.1 25451.5,18153.84 25454.01,18160.98 25469.07,18187.12 25511.74,18227.55 25534.34,18256.07 25541.88,18267.95 25539.37,18272.72 25496.69,18277.48 25486.63,18279.83 25476.61,18286.98 25466.55,18294.12 25451.5,18296.48 25431.42,18313.12 25361.12,18446.26 25341.03,18472.4 25315.93,18496.18 25288.3,18515.21 25200.43,18553.23 25187.89,18577.01 25177.84,18588.89 25172.84,18596.01 25125.13,18653.08 25100.03,18703.01 25079.94,18748.17 25102.54,18793.34 25207.98,18933.59 25250.65,18959.76 25318.44,18995.4 25320.95,19004.92 25328.49,19021.57 25333.49,19035.83 25353.58,19047.71 25381.2,19047.71 25443.96,19021.57 25466.55,19023.95 25479.12,19045.33 25654.86,19123.77 25679.97,19164.2 25692.51,19204.6 25692.51,19235.51 25697.53,19273.55 25710.08,19311.58 25737.7,19325.84 25772.86,19337.74 25795.43,19349.62 25820.54,19375.76 25843.13,19404.31 25850.67,19416.19 25858.22,19435.22 25873.27,19482.76 25875.78,19494.64 "/>
   <polygon class="fil0 str0" points="21650.52,16767.84 21889.02,17022.22 21936.72,17091.17 21954.29,17152.97 21878.99,17307.49 21575.22,17666.48 21572.71,17664.09 21560.14,17621.28 21552.62,17604.64 21497.38,17535.72 21477.3,17497.67 21447.16,17385.94 21429.59,17359.8 21381.89,17309.87 21366.83,17286.11 21354.29,17248.06 21339.21,17164.85 21291.51,17010.34 21276.45,16974.67 21286.51,16960.41 21278.97,16934.27 21276.45,16805.89 21271.42,16767.84 21258.88,16736.94 21150.93,16565.78 21123.31,16537.26 20796.95,16309.03 20671.4,16256.75 20528.32,16221.08 20475.58,16213.94 20442.96,16230.58 20422.88,16268.63 20407.8,16332.82 20372.66,16351.84 20345.04,16411.27 20302.36,16454.05 20252.14,16477.84 20196.93,16480.19 20139.17,16456.43 19988.55,16354.2 19960.93,16354.2 19875.57,16368.46 19868.06,16351.84 19863.03,16335.2 19858,16330.44 19830.38,16375.6 19820.35,16385.1 19810.3,16394.62 19740,16325.67 19639.59,16301.91 19345.85,16318.56 19167.6,16375.6 19079.73,16375.6 19029.54,16363.72 18989.35,16335.2 18909.02,16259.1 18821.16,16197.3 18680.56,16128.37 18519.9,16049.92 18479.71,16011.88 18469.68,15969.09 18487.25,15819.31 18499.79,15788.41 18517.39,15762.27 18542.47,15740.86 18602.74,15712.35 18622.82,15690.95 18610.26,15655.28 18512.36,15524.55 18469.68,15443.72 18454.6,15377.15 18492.28,15327.22 18532.44,15301.08 18577.63,15296.32 18632.85,15312.96 18683.07,15343.87 18713.21,15355.75 18735.8,15353.39 18750.86,15329.61 18748.34,15303.47 18735.8,15277.3 18718.23,15255.92 18698.12,15239.28 18627.85,15198.85 18605.26,15177.47 18590.17,15153.68 18607.77,15137.04 18622.82,15094.26 18620.31,15075.24 18605.26,15041.95 18600.23,15034.83 18597.71,15025.31 18602.74,15018.19 18612.77,15011.05 18635.36,15006.29 18675.53,15003.93 18705.66,14992.02 18780.99,14942.1 18808.59,14918.34 18816.13,14913.58 18841.24,14911.19 18871.37,14932.6 18886.43,14942.1 18959.24,14958.74 19032.03,14965.88 19052.11,14982.53 19057.14,15020.57 19057.14,15103.76 19069.7,15134.66 19107.35,15191.73 19124.92,15239.28 19165.09,15308.2 19185.17,15334.37 19210.28,15351.01 19242.93,15358.13 19310.71,15358.13 19335.82,15372.39 19350.88,15403.29 19375.99,15474.62 19413.64,15538.81 19461.34,15588.74 19805.27,15885.88 19842.95,15893 19863.03,15900.14 19878.09,15912.02 19930.82,15966.71 19976.01,16007.11 20008.63,16019.02 20093.99,16033.28 20121.61,16049.92 20199.44,16130.73 20217.01,16156.9 20234.58,16211.56 20257.17,16221.08 20267.23,16228.2 20299.85,16240.11 20337.5,16237.73 20362.61,16218.7 20420.37,16111.73 20445.48,16085.56 20468.07,16068.92 20493.15,16057.04 20523.29,16049.92 20601.13,16049.92 20879.79,16114.11 20950.09,16142.63 21017.87,16180.65 21103.23,16242.46 21351.78,16503.98 21525,16767.84 21532.54,16772.61 21552.62,16784.49 21572.71,16791.63 "/>
   <polygon class="fil0 str0" points="28042.38,17685.53 28054.92,17695.02 28238.2,17702.14 28298.44,17718.78 28321.04,17723.55 28346.15,17728.31 28378.77,17725.93 28416.44,17718.78 28426.47,17716.43 28434.01,17723.55 28441.55,17733.07 28451.58,17756.83 28459.12,17773.47 28461.64,17792.5 28459.12,17816.26 28451.58,17842.42 28439.04,17870.95 28436.53,17880.44 28434.01,17892.32 28434.01,17904.23 28436.53,17989.8 28439.04,18020.7 28459.12,18115.79 28464.15,18122.93 28469.15,18132.43 28479.2,18141.96 28509.34,18153.84 28516.85,18160.98 28521.88,18168.1 28521.88,18182.36 28516.85,18191.89 28516.85,18206.15 28521.88,18220.41 28562.05,18265.57 28559.53,18308.35 28554.5,18325 28549.5,18329.76 28541.96,18336.88 28514.34,18344.02 28506.83,18348.78 28504.31,18358.28 28501.8,18367.78 28509.34,18448.61 28514.34,18458.14 28519.37,18465.25 28536.94,18470.02 28549.5,18470.02 28562.05,18467.63 28569.59,18465.25 28597.21,18453.37 28604.72,18450.99 28614.78,18450.99 28624.8,18450.99 28634.86,18458.14 28642.4,18470.02 28644.89,18493.8 28639.89,18505.68 28639.89,18522.32 28642.4,18531.82 28692.59,18584.13 28712.67,18576.99 28720.21,18576.99 28725.24,18574.61 28742.81,18600.77 28858.3,18631.68 28875.87,18634.06 28898.46,18631.68 28908.49,18629.29 28918.54,18629.29 28943.65,18643.56 28953.68,18648.32 28966.25,18650.7 28981.3,18645.94 29013.95,18648.32 29267.5,18693.48 29292.61,18731.53 29330.26,18900.31 29325.26,18914.57 29302.67,18919.33 29292.61,18919.33 29252.45,18928.83 29222.31,18938.33 29174.64,18962.11 29152.01,18978.76 29141.99,18988.25 29139.47,18997.78 29134.44,19009.66 29134.44,19035.8 29134.44,19052.44 29136.96,19064.35 29139.47,19073.85 29141.99,19090.49 29141.99,19102.37 29141.99,19123.77 29139.47,19133.27 29131.93,19142.8 29119.39,19147.53 29106.85,19149.92 29061.66,19149.92 29044.06,19154.68 29034.04,19171.32 29029.01,19185.58 29026.49,19309.19 29041.58,19340.1 29061.66,19363.88 29121.9,19413.81 29232.37,19506.52 29219.8,19523.16 29202.23,19592.09 29192.2,19663.42 29189.69,19729.99 29172.12,19789.41 29162.07,19848.84 29152.01,19853.6 29136.96,19848.84 29121.9,19853.6 29119.39,19855.98 28770.43,19772.77 28692.59,19768.01 28692.59,19777.53 28695.1,19796.53 28695.1,19803.67 28695.1,19813.17 28690.08,19822.7 28685.08,19829.81 28677.54,19836.96 28670,19839.34 28652.43,19844.08 28491.75,19848.84 28471.66,19846.46 28461.64,19841.69 28451.58,19836.96 28441.55,19829.81 28436.53,19820.32 28434.01,19806.06 28436.53,19777.53 28446.55,19729.99 28441.55,19703.82 28411.42,19651.54 28381.28,19646.78 28255.76,19622.99 28142.79,19606.35 28122.7,19606.35 28097.6,19613.49 28075,19625.37 28062.46,19634.9 28052.4,19644.39 28004.7,19713.35 27992.16,19725.23 27881.7,19768.01 27871.64,19768.01 27851.56,19763.25 27828.96,19751.37 27741.1,19687.18 27705.96,19663.42 27678.34,19665.8 27467.46,19710.96 27459.92,19713.35 27319.32,19777.53 27289.21,19796.53 27266.62,19803.67 27213.89,19803.67 27115.97,19779.89 27108.45,19772.77 27100.91,19760.89 27098.4,19741.87 27095.88,19727.61 27095.88,19715.7 27098.4,19687.18 27098.4,19661.04 27093.37,19649.16 27088.37,19639.63 27053.21,19613.49 27008.01,19584.97 26932.71,19513.64 26917.63,19494.61 26907.61,19480.35 26905.09,19470.85 26890.04,19411.43 26887.52,19404.29 26882.5,19397.17 26874.96,19390.02 26867.44,19385.26 26857.39,19382.88 26844.85,19380.53 26799.66,19380.53 26782.09,19382.88 26769.52,19390.02 26767.01,19399.52 26767.01,19409.05 26767.01,19435.19 26767.01,19444.71 26764.49,19454.21 26759.49,19461.33 26754.46,19468.47 26721.82,19489.88 26691.71,19506.52 26674.11,19511.26 26051.49,19497 25973.68,19349.62 25956.11,19294.93 25956.11,19285.43 25998.79,19192.7 26003.82,19178.44 26006.3,19161.79 26008.82,19135.65 26006.3,19121.39 25963.63,18969.26 25951.08,18952.62 25938.54,18940.71 25910.92,18916.95 25865.73,18869.4 25855.68,18848 25858.19,18838.5 25865.73,18831.36 25873.27,18826.62 25888.32,18824.24 25958.62,18814.71 26046.49,18793.34 26059.03,18783.81 26071.6,18774.31 26076.6,18743.41 26079.12,18731.53 26086.66,18719.62 26096.68,18714.89 26106.74,18717.24 26156.96,18743.41 26199.63,18762.43 26239.8,18767.17 26282.47,18767.17 26300.04,18760.05 26312.61,18752.91 26322.64,18731.53 26347.75,18638.79 26352.77,18626.91 26375.37,18579.37 26380.4,18565.11 26382.88,18555.61 26380.4,18546.08 26372.86,18538.97 26365.32,18534.2 26355.29,18531.82 26345.23,18531.82 26340.21,18524.7 26342.72,18512.8 26380.4,18460.52 26382.88,18450.99 26387.91,18446.26 26390.42,18436.73 26390.42,18427.23 26395.45,18391.57 26392.94,18367.78 26395.45,18360.66 26400.48,18348.78 26407.99,18329.76 26415.53,18322.62 26425.59,18317.88 26448.18,18317.88 26581.24,18374.92 26608.84,18379.69 26613.87,18382.07 26628.92,18384.42 26666.6,18434.35 26689.19,18458.14 26749.44,18479.51 26777.06,18498.54 26804.66,18512.8 26834.79,18503.3 26897.55,18541.35 26960.31,18553.23 27274.13,18491.42 27291.7,18481.9 27384.6,18398.71 27399.68,18384.42 27407.19,18367.78 27407.19,18353.52 27402.16,18344.02 27394.65,18332.14 27382.08,18327.38 27369.54,18325 27357,18325 27329.38,18329.76 27319.32,18329.76 27311.81,18327.38 27309.3,18315.5 27311.81,18303.62 27349.46,18218.03 27362,18177.6 27369.54,18153.84 27382.08,18130.05 27419.76,18080.15 27427.27,18068.25 27427.27,18051.6 27407.19,18032.61 27399.68,18023.08 27397.16,18011.2 27399.68,17999.32 27419.76,17958.89 27429.79,17918.49 27424.76,17854.3 27407.19,17811.52 27407.19,17797.23 27414.73,17785.35 27444.87,17773.47 27454.9,17763.97 27464.95,17742.57 27467.46,17728.31 27459.92,17714.05 27449.87,17699.79 27437.33,17666.5 27437.33,17637.98 27442.36,17609.43 27459.92,17559.5 27472.46,17535.75 27485.03,17514.34 27502.6,17497.7 27520.17,17483.44 27540.25,17478.7 27560.33,17481.06 27582.93,17490.58 27613.06,17511.96 27638.17,17526.25 27665.8,17535.75 27688.39,17540.51 27718.5,17535.75 27751.15,17521.48 27856.59,17452.53 27871.64,17447.8 27884.21,17450.15 27899.26,17457.3 27941.94,17492.96 27992.16,17547.62 27994.67,17554.77 27997.19,17561.89 27997.19,17578.53 27987.13,17607.05 27987.13,17616.58 27989.65,17623.69 27992.16,17630.84 27997.19,17637.98 28014.75,17659.36 "/>
   <polygon class="fil0 str0" points="29119.42,19855.88 29109.36,19865.4 29101.82,19872.52 29099.33,19884.42 29096.82,19910.57 29106.85,19981.87 29147.01,20017.54 29325.26,20076.96 29443.27,20081.72 29501,20103.13 29506.03,20110.25 29518.59,20131.65 29526.11,20138.8 29536.16,20141.15 29561.27,20136.41 29571.3,20138.8 29583.87,20160.17 29586.38,20183.96 29568.78,20321.83 29576.33,20367 29578.84,20367 29556.24,20383.64 29531.13,20393.17 29425.7,20397.9 29405.62,20402.66 29390.53,20409.78 29380.51,20414.54 29372.97,20421.69 29360.43,20431.19 29352.88,20445.45 29347.86,20457.33 29347.86,20471.61 29360.43,20514.4 29367.94,20578.59 29403.1,20638.01 29405.62,20645.15 29408.13,20654.65 29408.13,20666.53 29405.62,20676.06 29403.1,20687.94 29403.1,20697.44 29400.59,20706.96 29400.59,20716.46 29403.1,20725.99 29403.1,20735.48 29408.13,20742.6 29410.62,20761.62 29413.13,20771.15 29413.13,20780.65 29408.13,20794.91 29400.59,20809.17 29385.53,20830.57 29377.99,20844.84 29375.48,20859.1 29375.48,20890 29372.97,20897.14 29367.94,20904.26 29357.91,20901.88 29350.37,20897.14 29322.75,20870.98 29317.75,20866.24 29310.21,20861.48 29300.15,20856.72 29277.56,20851.98 29254.99,20849.6 29234.88,20849.6 29214.8,20854.33 29194.72,20863.86 29182.18,20873.36 29172.12,20882.88 29164.61,20890 29076.74,21051.66 29061.66,21070.68 29036.55,21096.83 29021.49,21106.35 28998.9,21118.23 28941.17,21132.49 28931.11,21156.25 28913.54,21182.42 28888.44,21208.56 28833.22,21251.34 28825.68,21263.25 28815.62,21287.01 28808.11,21315.53 28793.03,21405.88 28780.49,21448.67 28777.97,21458.17 28757.89,21477.19 28597.21,21600.8 28514.37,21643.61 28496.8,21648.35 28444.07,21657.87 28431.53,21664.99 28418.96,21681.63 28396.36,21717.3 28381.31,21752.97 28373.77,21771.99 28366.25,21793.37 28356.2,21814.77 28346.17,21833.8 28167.92,21990.69 28155.35,22007.34 28147.81,22035.86 28140.3,22104.81 28132.76,22128.57 28110.16,22171.35 28064.97,22197.52 28047.4,22149.97 27999.7,22116.69 27946.99,22090.52 27889.24,22076.26 27778.77,22076.26 27733.58,22064.38 27585.47,21997.81 27517.68,21916.98 27475,21876.58 27427.3,21857.56 27331.89,21831.41 27241.51,21762.46 27201.35,21741.06 27103.45,21726.8 26957.82,21660.26 26907.61,21655.49 26867.44,21672.13 26797.14,21724.44 26759.49,21745.82 26659.08,21752.97 26561.16,21722.06 26320.15,21567.52 26174.52,21474.81 25978.71,21348.81 25840.65,21227.58 25644.8,21061.16 25546.91,21001.73 25333.49,20930.43 25145.22,20828.19 24838.93,20580.97 24756.07,20478.73 24778.66,20457.33 24911.72,20317.07 24979.51,20274.29 25180.35,20195.84 25258.19,20169.7 25501.72,20086.49 25509.26,20081.72 25516.77,20074.61 25519.28,20060.35 25519.28,20048.44 25514.26,20041.32 25509.26,20034.18 25464.07,19979.52 25454.01,19965.26 25446.47,19948.61 25443.96,19941.47 25441.47,19931.97 25441.47,19922.45 25443.96,19912.95 25454.01,19898.69 25466.55,19879.66 25577.02,19765.55 25587.07,19758.43 25597.12,19753.67 25614.69,19751.29 25629.75,19753.67 25647.32,19746.52 25664.88,19732.26 25810.51,19594.39 25878.3,19544.46 26023.9,19513.56 26051.52,19496.92 26674.14,19511.18 26691.71,19506.41 26721.84,19489.8 26754.46,19468.39 26759.49,19461.25 26764.52,19454.13 26767.03,19444.61 26767.03,19435.11 26767.03,19408.97 26767.03,19399.44 26769.55,19389.95 26782.09,19382.8 26799.66,19380.42 26844.85,19380.42 26857.41,19382.8 26867.44,19385.18 26874.98,19389.95 26882.52,19397.06 26887.52,19404.21 26890.04,19411.32 26905.12,19470.78 26907.61,19480.27 26917.66,19494.53 26932.71,19513.56 27008.04,19584.89 27053.23,19613.41 27088.37,19639.55 27093.4,19649.05 27098.42,19660.96 27098.42,19687.1 27095.91,19715.62 27095.91,19727.53 27098.42,19741.79 27100.94,19760.79 27108.45,19772.69 27115.99,19779.81 27213.91,19803.59 27266.62,19803.59 27289.21,19796.45 27319.35,19777.43 27459.95,19713.24 27467.46,19710.88 27678.36,19665.69 27705.96,19663.34 27741.12,19687.1 27828.99,19751.29 27851.59,19763.17 27871.67,19767.93 27881.7,19767.93 27992.16,19725.15 28004.73,19713.24 28052.43,19644.32 28062.46,19634.79 28075.03,19625.29 28097.62,19613.41 28122.73,19606.27 28142.81,19606.27 28255.79,19622.91 28381.31,19646.7 28411.44,19651.43 28441.55,19703.74 28446.58,19729.88 28436.53,19777.43 28434.04,19805.98 28436.53,19820.24 28441.55,19829.74 28451.61,19836.88 28461.64,19841.62 28471.69,19846.38 28491.77,19848.76 28652.45,19844 28670.02,19839.23 28677.56,19836.88 28685.08,19829.74 28690.1,19822.62 28695.13,19813.09 28695.13,19803.59 28695.13,19796.45 28692.62,19777.43 28692.62,19767.93 28770.43,19772.69 "/>
   <polygon class="fil0 str0" points="28064.97,22197.65 28110.16,22171.51 28132.76,22128.7 28140.27,22104.94 28147.81,22035.99 28155.35,22007.47 28167.9,21990.83 28346.15,21833.93 28356.2,21814.9 28366.23,21793.53 28373.77,21772.12 28381.31,21753.1 28396.36,21717.43 28418.96,21681.79 28431.5,21665.15 28444.07,21658.01 28496.77,21648.51 28514.37,21643.75 28597.21,21600.96 28757.89,21477.32 28777.97,21458.33 28780.49,21448.8 28793.03,21406.02 28808.08,21315.69 28815.62,21287.14 28825.68,21263.38 28833.19,21251.5 28888.44,21208.69 28913.54,21182.55 28931.11,21156.41 28941.14,21132.62 28998.9,21118.36 29021.49,21106.48 29036.55,21096.96 29061.66,21070.82 29076.71,21051.79 29164.58,20890.13 29172.12,20883.02 29182.15,20873.52 29194.72,20863.99 29214.8,20854.49 29234.88,20849.73 29254.96,20849.73 29277.56,20852.11 29300.15,20856.87 29310.21,20861.61 29317.72,20866.37 29322.75,20871.14 29350.37,20897.28 29357.91,20902.04 29367.94,20904.42 29372.97,20897.28 29375.48,20890.13 29375.48,20859.23 29377.99,20844.97 29385.51,20830.71 29400.59,20809.33 29408.1,20795.04 29413.13,20780.78 29413.13,20771.28 29410.62,20761.78 29408.1,20742.76 29403.1,20735.62 29403.1,20726.12 29400.59,20716.59 29400.59,20707.09 29403.1,20697.6 29403.1,20688.07 29405.59,20676.19 29408.1,20666.69 29408.1,20654.79 29405.59,20645.29 29403.1,20638.14 29367.94,20578.72 29360.4,20514.53 29347.86,20471.75 29347.86,20457.49 29352.88,20445.58 29360.4,20431.32 29372.97,20421.82 29380.51,20414.68 29390.53,20409.94 29405.59,20402.8 29425.7,20398.03 29531.13,20393.3 29556.24,20383.77 29578.84,20367.13 29603.92,20390.92 29789.71,20421.82 29829.88,20419.44 29940.34,20383.77 29960.42,20374.27 29980.5,20369.51 30003.1,20369.51 30025.69,20379.04 30038.26,20383.77 30060.86,20405.18 30083.45,20409.94 30108.56,20400.42 30133.67,20383.77 30143.7,20381.42 30156.27,20381.42 30168.81,20381.42 30181.35,20383.77 30203.94,20409.94 30251.65,20514.53 30294.33,20573.96 30309.41,20609.62 30306.89,20647.67 30294.33,20678.57 30276.76,20702.33 30254.16,20721.35 30229.05,20733.23 30193.92,20740.38 30168.81,20740.38 30153.75,20749.88 30148.73,20787.92 30151.24,20806.95 30161.27,20821.21 30166.29,20837.85 30166.29,20859.23 30158.75,20868.75 30121.1,20894.9 30111.07,20921.06 30113.56,20951.97 30133.67,21018.51 30136.16,21054.17 30131.16,21156.41 30136.16,21194.43 30146.21,21218.22 30181.35,21270.52 30191.4,21296.66 30193.92,21353.71 30198.94,21377.5 30211.48,21403.64 30269.22,21455.94 30324.46,21548.65 30349.57,21574.79 30424.87,21615.22 30540.36,21712.7 30575.52,21764.98 30580.52,21833.93 30557.93,21936.16 30522.79,22033.61 30465.06,22116.82 30447.47,22150.1 30434.92,22178.63 30429.9,22207.15 30417.36,22228.55 30394.76,22245.2 30372.17,22249.96 30304.38,22259.46 30259.19,22273.72 30234.08,22299.89 30171.32,22478.16 30128.64,22558.99 30023.21,22699.25 29942.85,22770.58 29867.55,22860.91 29807.28,22963.14 29764.6,23070.11 29759.58,23143.8 29789.71,23281.7 29794.74,23355.39 29787.2,23417.19 29769.63,23476.62 29742.01,23528.93 29734.49,23552.71 29729.47,23521.81 29711.9,23498.02 29686.79,23483.76 29656.65,23476.62 29603.92,23479 29583.84,23476.62 29568.78,23467.12 29536.14,23445.72 29521.08,23440.98 29503.51,23443.36 29475.89,23450.48 29460.83,23452.86 29450.78,23460 29443.27,23476.62 29430.7,23493.26 29415.64,23500.41 29390.53,23479 29362.91,23407.7 29330.29,23391.05 29300.15,23400.55 29272.53,23419.58 29224.85,23464.74 29197.23,23486.14 29167.09,23500.41 29134.47,23507.55 29099.31,23512.29 29061.66,23519.43 29006.41,23552.71 28973.79,23559.83 28941.14,23547.95 28926.09,23521.81 28913.54,23488.53 28900.98,23457.62 28870.87,23433.84 28805.57,23410.08 28775.46,23391.05 28762.89,23364.91 28737.81,23288.82 28720.21,23274.56 28690.1,23265.06 28632.35,23227.01 28604.75,23212.75 28534.45,23212.75 28401.39,23241.27 28210.57,23250.8 28195.52,23255.53 28165.38,23279.32 28150.33,23284.08 28110.16,23284.08 28092.6,23279.32 27997.19,23241.27 27962.05,23236.54 27924.37,23241.27 27896.75,23248.42 27859.1,23222.28 27861.61,23191.35 27884.21,23160.44 27911.83,23134.3 27934.43,23098.64 27929.4,23070.11 27906.8,23046.35 27876.67,23022.57 27856.59,22975.02 27864.13,22910.83 27894.26,22794.34 27899.26,22725.41 27889.24,22587.51 27894.26,22518.59 27944.45,22433 28027.32,22333.17 28080.03,22233.32 "/>
   <polygon class="fil0 str0" points="30444.98,17381.25 30439.95,17454.94 30422.38,17473.96 30342.06,17488.23 30321.95,17490.61 30314.43,17495.34 30306.89,17500.11 30304.38,17509.6 30301.87,17552.41 30291.84,17621.34 30296.87,17630.86 30304.38,17637.98 30326.97,17633.24 30354.6,17626.1 30367.14,17626.1 30372.17,17647.5 30198.94,18023.11 30193.92,18049.25 30188.89,18077.8 30196.43,18127.7 30201.46,18141.98 30209,18156.25 30216.51,18160.98 30256.67,18168.13 30588.07,18175.24 31024.92,18073.03 31029.92,18073.03 31032.43,18075.42 31024.92,18089.68 31017.38,18099.18 31012.35,18108.7 31004.84,18120.58 30984.73,18189.53 30979.73,18201.41 30974.7,18218.05 30992.27,18248.96 30992.27,18251.34 30934.54,18265.6 30904.4,18286.98 30942.05,18325.02 31007.32,18365.43 31057.54,18384.45 31072.6,18382.07 31009.84,18460.52 30987.24,18498.56 30979.73,18517.59 30979.73,18531.85 30979.73,18543.73 30982.24,18553.25 30987.24,18569.9 30997.3,18588.89 31007.32,18622.18 31012.35,18638.82 31014.87,18648.34 31014.87,18664.99 31012.35,18724.41 31007.32,18733.91 30999.81,18733.91 30997.3,18726.79 30989.76,18719.65 30982.24,18717.27 30974.7,18714.89 30962.16,18722.03 30959.65,18729.17 30964.65,18736.29 30969.67,18743.44 30997.3,18757.7 31004.84,18764.81 31007.32,18771.96 31004.84,18781.46 31002.32,18793.34 30994.78,18809.98 30992.27,18838.53 30989.76,18855.17 30984.73,18855.17 30969.67,18852.79 30954.62,18893.19 30939.56,19183.23 30932.02,19226.01 30911.94,19261.68 30876.78,19294.96 30814.02,19332.98 30793.94,19359.15 30811.51,19394.81 30781.4,19406.69 30691.02,19430.45 30620.72,19435.22 30547.9,19430.45 30429.92,19390.05 30211.48,19385.29 29711.9,19261.68 29644.11,19259.29 29588.89,19275.94 29453.32,19368.65 29337.83,19385.29 29307.69,19413.81 29317.75,19492.26 29312.72,19499.4 29307.69,19504.17 29300.18,19506.55 29292.64,19508.9 29254.99,19504.17 29232.39,19506.55 29121.93,19413.81 29061.66,19363.91 29041.58,19340.12 29026.52,19309.22 29029.03,19185.61 29034.06,19171.35 29044.09,19154.7 29061.66,19149.94 29106.85,19149.94 29119.42,19147.56 29131.96,19142.8 29139.5,19133.3 29142.01,19123.8 29142.01,19102.4 29142.01,19090.52 29139.5,19073.87 29136.98,19064.35 29134.47,19052.47 29134.47,19035.83 29134.47,19009.69 29139.5,18997.81 29142.01,18988.28 29152.04,18978.78 29174.64,18962.14 29222.34,18938.35 29252.48,18928.86 29292.64,18919.36 29302.69,18919.36 29325.29,18914.59 29330.29,18900.33 29292.64,18731.53 29267.53,18693.51 29013.98,18648.34 28981.33,18645.96 28966.28,18650.7 28953.71,18648.34 28943.68,18643.58 28918.57,18629.32 28908.52,18629.32 28898.49,18631.7 28875.89,18634.08 28858.33,18631.7 28742.83,18600.8 28725.27,18574.63 28720.24,18577.01 28712.7,18577.01 28692.62,18584.16 28642.4,18531.85 28639.91,18522.35 28639.91,18505.71 28644.91,18493.8 28642.4,18470.04 28634.89,18458.16 28624.83,18451.02 28614.8,18451.02 28604.75,18451.02 28597.21,18453.4 28569.61,18465.28 28562.07,18467.66 28549.53,18470.04 28536.96,18470.04 28519.39,18465.28 28514.37,18458.16 28509.34,18448.64 28501.83,18367.81 28504.34,18358.31 28506.83,18348.81 28514.37,18344.05 28541.99,18336.9 28549.53,18329.79 28554.53,18325.02 28559.56,18308.38 28562.07,18265.6 28521.91,18220.43 28516.88,18206.17 28516.88,18191.89 28521.91,18182.39 28521.91,18168.13 28516.88,18160.98 28509.34,18153.86 28479.23,18141.98 28469.18,18132.46 28464.15,18122.96 28459.15,18115.82 28439.07,18020.73 28436.55,17989.82 28434.04,17904.26 28434.04,17892.35 28436.55,17880.47 28439.07,17870.97 28451.61,17842.42 28459.15,17816.28 28461.66,17792.52 28459.15,17773.5 28451.61,17756.86 28441.55,17733.07 28434.04,17723.57 28426.5,17716.43 28416.47,17718.81 28378.79,17725.95 28346.17,17728.34 28321.06,17723.57 28298.47,17718.81 28238.22,17702.17 28054.94,17695.05 28042.38,17685.53 28265.82,17274.26 28306.01,17176.78 28273.36,17122.12 28260.82,17091.22 28258.3,17081.69 28258.3,17050.79 28263.33,17017.51 28263.33,17000.89 28263.33,16986.6 28258.3,16979.49 28253.28,16972.34 28245.74,16965.22 28115.19,16931.94 28095.11,16920.06 28085.08,16915.3 28072.51,16901.04 28064.97,16884.39 28059.97,16877.25 28057.46,16867.75 28034.86,16611 28052.43,16589.6 28064.97,16561.07 28243.22,16492.15 28243.22,16485.01 28326.09,16506.41 28496.8,16496.88 28639.91,16487.39 29006.44,16465.98 29194.72,16456.48 29501.03,16437.46 29686.79,16427.96 29721.95,16437.46 29782.2,16468.36 29814.82,16477.89 29842.44,16473.13 29885.12,16446.96 29927.8,16420.82 29962.96,16397.06 29972.99,16425.58 29980.53,16449.34 29985.56,16454.1 29995.58,16473.13 30028.23,16513.53 30060.86,16553.96 30075.94,16587.24 30080.94,16622.88 30085.97,16656.16 30096.02,16672.81 30106.05,16687.07 30123.62,16672.81 30141.21,16665.69 30158.78,16668.07 30176.35,16687.07 30196.43,16646.67 30226.57,16644.28 30231.59,16682.33 30231.59,16687.07 30229.08,16703.71 30244.13,16708.47 30246.65,16710.85 30214,16734.61 30201.46,16741.76 30214,16746.52 30219.02,16756.02 30231.59,16777.42 30231.59,16829.7 30224.05,16860.61 30216.51,16891.51 30206.48,16920.06 30196.43,16950.96 30173.83,16998.51 30156.27,17022.27 30136.18,17046.05 30111.07,17062.7 30060.86,17086.46 30045.8,17095.98 30043.29,17110.24 30050.83,17117.36 30108.56,17129.24 30153.75,17153.03 30286.81,17279.02 30337.03,17314.69 30384.73,17352.71 "/>
   <path class="fil0 str0" d="M30989.7 18855.06l2.52 -16.64 2.51 -28.52 7.54 -16.64 2.49 -11.88 2.51 -9.5 -2.51 -7.15 -7.52 -7.11 -27.62 -14.29 -5.03 -7.12 -5 -7.14 2.49 -7.12 12.57 -7.14 7.54 2.38 7.51 2.38 7.54 7.14 2.52 7.12 7.51 0 5.03 -9.5 2.51 -59.45 0 -16.64 -2.51 -9.5 -5.03 -16.64 -10.03 -33.29 -10.05 -19.02 -5 -16.64 -2.51 -9.5 0 -11.88 0 -14.26 7.51 -19.03 22.6 -38.04 62.75 -78.45 341.45 -64.19 67.79 45.16 10.05 26.17 2.49 28.52 0 26.15 -12.54 21.4 -32.65 4.76 -107.95 -14.26 -27.6 7.12 -52.73 42.78 -20.08 7.15 -32.65 -57.05 -22.6 -16.64 -17.57 33.28 2.52 16.65 25.11 18.99 5.02 14.26 -2.51 35.67 2.51 16.64 7.52 19.03 128.06 168.77 5 40.43 -62.76 23.76 -32.63 -49.93 -22.59 -76.06 -30.14 -61.81 -30.13 -21.4 -10.03 14.28 5.03 33.26 15.05 40.43 32.62 64.19 -2.48 26.14 -17.6 35.66 -5 2.39 -15.08 2.38 -5.03 2.35 -10.03 28.55 0 11.88 -2.51 16.64 -10.05 11.88 -20.09 -9.5 -37.65 -59.45 -25.1 -19 -50.22 42.79 -15.06 -7.15zm632.67 -663.25l-47.7 -23.76 -32.65 -4.77 -235.98 35.67 -30.14 11.88 -50.19 26.14 -35.16 4.76 -82.84 -14.26 -32.65 2.38 -82.84 21.41 0 -2.38 -17.57 -30.91 5.03 -16.64 5 -11.91 20.08 -68.92 7.54 -11.88 5.03 -9.52 7.54 -9.5 7.51 -14.26 -2.51 -2.38 -5 0 -436.86 102.2 -331.39 -7.11 -40.16 -7.15 -7.54 -4.73 -7.52 -14.29 -5.02 -14.26 -7.54 -49.93 5.02 -28.52 5.03 -26.14 173.22 -375.6 -5.02 -21.41 -12.55 0 -27.62 7.14 -22.59 4.74 -7.54 -7.12 -5 -9.52 10.02 -68.93 2.52 -42.81 2.51 -9.49 7.54 -4.77 7.51 -4.73 20.09 -2.38 80.35 -14.26 17.57 -19.03 5.03 -73.71 112.97 57.07 170.71 85.57 5.03 -9.5 17.57 -16.64 22.59 0 10.03 -11.88 10.06 -16.65 12.54 -7.14 17.59 2.38 57.73 26.17 37.65 7.12 32.65 -19.03 7.54 -23.76 -27.62 -14.26 35.14 -54.69 2.51 -11.88 -12.54 -21.4 -7.54 -21.38 -7.54 -23.79 2.51 -23.76 -37.65 -7.14 -12.57 -7.14 -12.54 -14.27 -10.05 -35.63 -7.52 -76.1 -7.54 -76.07 2.52 -14.26 2.51 -14.26 10.03 -9.5 7.54 -7.14 10.05 -19.02 2.52 -19.03 -5.03 -40.4 2.51 -19.02 5 2.38 15.09 4.76 5.02 4.74 17.57 -42.79 40.16 -26.14 30.14 -14.26 75.3 64.19 10.06 16.64 5 19 2.51 42.81 5.03 14.26 7.54 4.76 12.54 -9.52 5.03 0 5.02 11.88 5.03 30.9 22.6 -9.5 32.62 7.14 32.65 11.88 22.59 16.65 12.54 16.64 15.06 30.9 12.57 11.88 10.02 7.15 37.68 18.99 17.57 11.91 7.54 9.5 15.06 30.9 0 7.15 -2.52 21.37 2.52 9.53 10.02 7.12 10.06 2.38 10.02 -2.38 10.06 2.38 20.08 19.02 15.06 21.41 5.02 23.75 -20.08 23.79 22.6 14.26 20.08 -7.14 20.08 -11.88 22.6 -7.15 15.08 7.15 -7.54 19.02 -22.6 35.64 62.76 -9.5 25.11 2.38 17.57 45.17 27.62 21.4 7.54 16.65 -7.54 14.26 -22.6 21.37 0 14.27 10.06 7.14 15.05 -9.5 15.06 -16.64 15.05 -7.14 12.57 7.14 10.03 11.88 0 11.88 -37.65 16.64 -12.54 26.14 -17.57 64.19 17.57 -2.36 15.05 2.36 15.06 4.76 12.56 9.5 -27.62 14.29 2.52 14.26 15.05 14.26 10.05 11.88 2.52 14.26 5 16.64 2.51 16.65 -5 14.26 -22.59 26.14 -7.54 14.28 -7.55 16.65 -5 14.26 -30.13 166.39 20.08 49.93 10.05 14.26 2.49 26.14 -20.08 71.34 -7.52 26.14z"/>
   <path class="fil0 str0" d="M33660.96 16021.43l-17.57 45.16 -12.54 21.41 -72.81 90.33 -2.51 11.88 -2.52 11.88 2.52 21.4 2.51 28.52 5.03 9.53 5.02 7.12 40.17 4.76 5 16.64 -7.52 23.76 -5.02 11.91 -27.63 57.04 -2.51 9.5 0 14.29 5.03 11.88 7.54 14.26 30.11 38.02 30.13 47.54 5.03 40.43 5.03 135.49 -12.57 42.81 -17.57 -19.02 -65.27 -26.14 -55.24 14.26 -40.17 192.54 -80.33 90.35 -105.43 61.81 -150.66 57.04 -138.06 99.86 -268.63 80.83 -32.65 14.26 -30.11 23.76 -60.27 73.71 -35.14 28.52 -37.65 11.88 -45.19 -14.26 -20.08 -16.64 -15.08 -19.02 -25.11 -42.79 -17.57 -19.02 -35.13 -23.76 -17.57 -14.26 -57.76 -83.21 -32.62 -30.91 -47.71 -4.76 -22.59 -11.88 -17.57 -19.02 -20.08 -14.26 -25.11 -2.38 -47.71 14.26 -22.59 11.9 -22.6 16.65 -35.16 45.16 -22.57 47.55 -10.05 54.66 -2.52 66.57 10.06 97.47 -5.03 23.76 -22.6 11.91 -87.86 7.11 -52.74 35.67 0 38.05 57.76 92.71 2.49 0 30.14 102.21 15.05 33.28 37.68 64.19 15.05 35.66 10.06 40.41 -12.57 87.97 -45.19 7.12 -57.73 -19.03 -37.65 4.77 7.51 52.3 105.44 90.33 0 42.79 -55.22 23.78 -72.82 -2.38 -130.54 -35.67 -50.22 -23.75 7.54 -26.15 20.08 -71.33 -2.51 -26.14 -10.03 -14.26 -20.08 -49.93 30.11 -166.42 5.03 -14.26 7.54 -16.64 7.51 -14.26 22.6 -26.14 5.02 -14.27 -2.51 -16.64 -5.03 -16.64 -2.48 -14.26 -10.06 -11.91 -15.05 -14.26 -2.52 -14.26 27.63 -14.26 -12.57 -9.5 -15.06 -4.76 -15.08 -2.38 -17.57 2.38 17.57 -64.19 12.57 -26.14 37.65 -16.64 0 -11.91 -10.03 -11.88 -12.56 -7.12 -15.06 7.12 -15.05 16.64 -15.09 9.53 -10.02 -7.14 0 -14.27 22.59 -21.4 7.52 -14.26 -7.52 -16.64 -27.62 -21.38 -17.57 -45.19 -25.11 -2.36 -62.76 9.5 22.6 -35.67 7.51 -19.02 -15.05 -7.12 -22.6 7.12 -20.08 11.91 -20.08 7.11 -22.6 -14.26 20.09 -23.76 -5.03 -23.78 -15.06 -21.41 -20.08 -18.99 -10.05 -2.38 -10.03 2.38 -10.05 -2.38 -10.03 -7.15 -2.52 -9.5 2.52 -21.4 0 -7.12 -15.08 -30.9 -7.52 -9.53 -17.59 -11.88 -37.65 -19.02 -10.03 -7.12 -12.57 -11.9 -15.05 -30.91 -12.57 -16.64 -22.6 -16.64 -32.62 -11.88 -32.65 -7.12 -22.59 9.5 -5 -30.9 -5.03 -11.88 -5.03 0 -12.54 9.49 -7.54 -4.76 -5.03 -14.26 -2.51 -42.78 -5 -19.03 -10.06 -16.64 -75.32 -64.19 57.76 -23.76 30.11 -33.28 27.62 -73.69 27.62 -73.71 17.57 -21.38 22.59 -21.4 50.22 -21.41 47.71 -21.38 37.65 -59.45 10.02 -11.88 7.55 -11.88 30.13 -9.52 62.76 -7.12 27.62 -11.88 25.11 -11.91 25.08 -16.64 25.11 -16.61 25.11 -23.79 12.57 -21.4 10.03 -87.95 12.57 -85.59 -2.52 -30.91 -2.51 -21.38 -5.03 -7.14 -7.54 -4.76 -12.54 -16.64 -5.03 -14.27 7.54 -14.26 12.54 -9.5 67.79 -30.9 27.62 -7.14 25.11 9.52 15.06 -38.04 37.65 -33.29 37.67 -23.76 40.17 -23.78 25.11 -7.12 42.67 16.64 20.09 -2.38 57.73 -35.67 20.08 -4.76 45.19 7.14 42.68 7.12 17.59 -9.5 -2.51 -19.02 -25.11 -42.78 -5.03 -19.03 10.06 -23.76 10.02 -23.78 37.68 -28.53 82.84 -23.77 75.3 -57.05 72.82 -54.68 22.59 -23.76 20.08 -21.41 25.11 -19.02 97.92 -26.14 97.9 -26.14 82.87 -2.39 80.33 -4.76 60.24 -23.76 45.19 -49.92 20.08 -28.53 22.6 -16.64 40.16 -14.26 40.19 -14.29 123.01 -85.56 17.57 -21.41 17.56 -19.02 50.22 -83.19 50.22 -80.83 20.08 -21.4 25.11 -11.88 27.62 -9.53 22.6 -11.88 20.08 -19.02 5 -16.64 5.03 -16.62 35.16 -76.09 32.62 -26.14 30.14 -26.14 143.09 -57.07 20.08 2.38 27.62 19.02 22.6 23.76 12.57 26.17 10.02 33.28 22.6 21.38 30.13 11.91 35.14 4.73 22.6 -9.5 22.59 -9.52 30.14 -54.66 15.05 -35.67 12.57 -33.28 32.62 -61.81 22.6 -21.41 20.08 -23.76 15.08 -26.14 12.54 -33.28 20.09 -28.52 35.13 0 67.79 16.61 55.24 -7.11 27.63 -11.88 27.59 -14.27 97.92 -76.09 32.65 -28.52 62.76 -47.55 47.68 -4.76 45.19 19.02 205.87 137.9 50.22 16.65 -20.08 71.3 -55.25 35.67 -120.49 33.28 -205.87 145.02 -60.24 14.26 -72.82 -2.38 -57.73 14.26 -27.62 68.95 -2.52 106.97 -17.56 30.91 -50.22 19.02 -145.6 14.26 -45.19 26.14 -143.12 116.5 -62.76 71.3 -42.67 87.98 -35.14 49.92 -45.22 26.14 -47.67 23.76 -85.36 64.19 -236.01 133.14 -32.62 47.54 27.6 59.42 52.73 26.17 205.87 21.38 2.51 2.38 52.71 30.9 25.11 21.41 22.59 26.14 35.14 64.19 22.62 19.02 25.08 0zm-1616.79 197.3l-15.05 -16.64 12.54 -16.65 -15.05 -21.37 -20.09 -11.88 22.6 -35.67 -7.54 -30.9 -52.71 -33.29 -45.19 -4.76 -35.16 -23.76 -47.68 2.38 -77.84 73.69 -12.54 57.04 -37.68 90.36 5.03 2.35 25.11 -11.88 2.51 21.41 10.03 21.38 35.16 38.04 25.11 -21.4 0 7.14 -7.54 16.64 17.57 30.91 42.68 11.88 47.7 -54.67 72.81 -64.18 55.22 -26.17z"/>
   <path class="fil0 str0" d="M36176.51 16753.64l-7.52 30.9 -35.16 152.14 -12.54 9.52 -5.03 2.38 -10.03 4.74 -20.08 4.76 -87.89 2.38 -25.09 4.76 -25.11 -2.38 -190.81 -45.16 -40.17 4.73 -35.13 -2.38 -32.65 0 -17.57 4.77 -60.25 26.14 -47.7 -21.38 -150.62 38.02 -20.08 26.17 -17.6 11.88 -47.67 42.78 -7.54 9.52 2.51 14.27 17.57 21.37 22.59 45.19 -42.67 40.41 -120.52 38.04 -128.03 66.55 -30.14 21.4 -45.19 68.95 -95.38 85.57 -32.65 4.76 -20.08 -4.76 -67.79 -35.64 -30.11 -23.79 -15.08 -4.76 -27.62 -4.74 -15.06 -4.76 -10.03 -4.76 -42.7 -42.78 -10.03 -4.77 -57.73 -4.73 -7.54 -9.53 92.89 -118.85 -165.7 7.12 -45.19 -4.74 -10.03 -9.52 -12.57 -7.12 -22.6 -9.53 -30.11 0 -67.78 59.43 -20.08 2.38 -40.19 -4.73 -20.09 2.35 -22.59 11.91 -17.57 16.64 -12.54 16.64 -15.08 19 -37.65 21.4 2.51 -14.26 12.54 -61.8 -55.22 -30.91 -133.05 -30.9 -22.6 -26.17 -5.03 -33.28 15.06 -21.38 27.62 -4.76 50.22 42.78 30.13 9.52 2.49 -33.28 -12.54 -16.64 -266.12 -285.28 -45.19 -38.04 -5.03 -4.74 -2.51 -7.14 -30.11 -28.53 12.54 -42.78 -5.02 -135.52 -5.01 -40.4 -30.13 -47.55 -30.14 -38.04 -7.51 -14.26 -5.03 -11.88 0 -14.26 2.51 -9.53 27.63 -57.04 5 -11.88 7.54 -23.79 -5.03 -16.64 -40.16 -4.76 -5.03 -7.12 -5.03 -9.5 -2.48 -28.55 -2.52 -21.38 2.52 -11.9 2.48 -11.88 72.82 -90.33 12.56 -21.41 17.57 -45.16 10.03 0 47.71 -16.64 180.76 -97.48 47.7 -7.11 27.63 16.64 25.1 30.9 82.85 133.11 12.54 38.05 2.51 38.05 -20.08 114.09 2.51 30.9 17.57 26.17 22.6 -2.38 30.13 -14.26 32.62 -2.39 27.63 11.88 25.11 16.65 25.11 23.78 20.08 26.14 25.11 23.76 30.11 2.38 62.78 -7.11 70.27 11.88 32.65 14.26 30.14 21.4 25.08 14.26 55.25 7.12 22.59 19.02 37.65 57.07 22.6 16.65 15.08 -35.67 -2.51 -38.05 -7.54 -33.28 2.51 -26.14 30.11 -16.64 35.16 4.76 17.57 21.38 17.57 68.95 12.57 26.14 20.08 19.02 20.08 -2.38 15.05 -35.64 35.17 -42.81 100.41 80.83 32.65 -26.14 7.51 -64.19 -12.54 -316.17 10.03 -23.79 20.11 4.76 70.27 61.81 62.78 26.14 50.2 -9.5 40.19 -40.4 47.67 -99.85 20.09 -61.81 7.54 -35.67 -5.03 -33.28 -42.68 -52.31 -15.05 -30.9 30.13 -68.93 17.57 -21.4 32.63 -11.88 32.63 4.76 17.57 23.76 7.54 35.67 0 38.02 -27.62 104.61 2.51 21.38 12.55 4.76 10.05 -14.26 5.03 -19.02 7.51 -11.88 15.08 7.14 7.52 28.53 15.08 7.11 10.03 -9.5 2.51 -40.42 10.05 -7.12 10.03 4.76 12.57 9.5 138.06 194.94 22.59 54.67 7.54 61.8 -2.51 76.1 7.54 78.45 37.65 16.64 115.49 -19.02 35.14 28.52 22.59 30.9 25.11 11.88 42.68 -23.76 32.65 -28.52 35.14 -19.02 35.16 -7.15 37.65 21.41 15.06 35.66 7.54 49.9 2.51 52.31 12.54 95.09 0 35.67 -10.03 33.28 -20.11 45.17 45.2 -14.26zm-2264.48 99.85l-17.6 -45.19 -20.08 -30.9 -35.14 -28.53 -40.16 -16.64 -22.6 4.76 15.06 38.05 27.62 26.14 42.68 54.67 25.11 21.4 27.59 7.14 -2.48 -30.9z"/>
   <path class="fil0 str0" d="M35536.32 18757.64l-22.57 4.74 -35.16 -11.88 -30.14 -11.88 -30.11 -21.4 -15.08 -26.15 25.11 -28.52 35.16 0 25.11 -11.9 52.71 -38.02 37.67 -11.88 5 18.99 -32.62 116.5 -15.08 21.4zm-856.08 -251.99l10.06 2.36 7.51 -4.74 15.08 -11.9 10.03 -4.74 35.16 -9.52 20.09 4.76 10.02 16.64 -10.02 28.52 -67.79 45.17 -22.6 21.4 2.52 47.55 65.27 64.19 -2.51 57.04 -17.57 21.4 -20.08 7.15 -47.71 0 -70.3 19 -20.08 -2.39 -17.57 -16.61 -2.51 -19.03 -7.54 -14.26 -27.62 -2.38 -17.57 11.88 -20.08 19.03 -20.09 11.88 -17.56 -9.5 -2.52 -45.17 62.76 -92.73 -7.54 -54.67 -17.57 -11.88 -37.65 -7.14 -20.08 -9.5 -15.08 -23.78 -37.65 -73.69 -7.54 -30.9 2.51 -28.53 7.54 -33.28 25.11 -54.69 45.19 -23.76 32.63 19 25.1 42.81 20.09 49.92 25.1 30.91 40.17 23.76 80.35 33.28 5 4.76 7.54 2.38zm600.03 -1326.54l45.19 61.81 30.13 57.07 15.06 21.38 7.54 2.38 2.51 -30.9 7.52 -7.12 15.04 0 40.19 21.38 20.08 4.76 12.54 2.38 7.54 -4.76 17.57 -2.38 22.6 2.38 75.33 23.78 17.56 9.5 12.54 11.88 12.57 21.41 57.73 76.07 12.57 7.14 12.54 4.74 35.14 4.76 30.14 -4.76 40.16 -2.36 70.3 21.38 87.87 16.64 25.11 -2.38 15.05 -19.02 15.08 -11.88 20.08 14.26 27.6 40.43 10.06 7.11 17.56 2.38 75.33 21.41 20.08 16.64 2.52 9.5 0 11.88 0 21.4 -5.03 33.29 -5.03 33.28 2.52 23.76 12.56 42.81 2.49 9.5 -65.27 2.38 -25.09 4.77 -97.92 52.28 -12.54 19.02 -10.05 33.29 -20.08 49.92 -37.66 38.02 -128.05 59.45 -7.52 26.15 10.03 28.52 27.62 16.64 42.68 19.02 20.08 14.26 7.54 14.27 -10.05 19.02 -20.08 4.76 -22.6 -2.38 -17.57 -7.14 -10.05 -2.38 -10.03 0 -17.57 4.76 -55.24 -4.76 -57.73 -11.88 -55.25 2.38 -45.19 42.78 -25.11 57.07 -17.57 26.14 -22.59 21.41 -77.82 42.78 -20.08 4.76 -30.14 -11.88 -7.54 -28.55 0 -73.68 -10.02 -35.67 -20.08 -40.4 -27.62 -21.41 -25.11 21.41 -10.02 35.67 -2.52 30.9 -12.57 21.38 -35.13 2.38 -70.3 -11.88 -32.65 -14.26 -30.11 -16.64 -27.62 -26.17 -12.55 -26.14 -12.56 -21.41 -65.28 -18.99 -45.19 -40.43 -30.11 -2.38 -45.19 4.76 -25.11 -2.38 -20.08 -9.5 -15.08 -16.64 -12.54 -19.03 -15.05 -9.5 -20.11 4.74 -25.09 33.28 -12.56 40.43 -20.09 30.91 -45.19 4.73 -170.71 -23.76 -85.35 14.26 -52.73 49.93 -30.14 -2.38 -128.03 11.88 -208.36 59.45 -62.78 4.74 -60.25 -2.38 -60.25 -40.41 -25.1 -76.06 -20.09 -85.6 -37.65 -59.42 -32.65 -11.88 -27.62 2.35 -27.59 7.15 -32.65 2.38 -30.14 -7.15 -72.79 -30.9 20.08 -64.19 -5.02 -7.11 -12.54 -14.27 -2.52 -2.38 -17.57 -26.16 -2.51 -4.74 -2.51 -9.52 -2.52 -38.03 22.6 -35.66 42.68 -26.14 100.41 -21.41 15.08 -7.14 15.05 -16.62 35.14 -57.07 20.11 -19.02 20.08 -9.5 20.08 -4.76 22.6 -9.5 17.56 -16.64 52.74 -59.43 87.86 -68.95 22.6 -19.02 20.08 -16.64 12.54 -4.74 25.11 -4.76 5.03 -7.15 2.51 -9.5 5 -7.14 22.6 -14.26 37.67 -21.38 15.06 -19.02 12.54 -16.64 17.6 -16.65 22.59 -11.88 20.08 -2.38 40.17 4.74 20.08 -2.36 67.78 -59.45 30.14 0 22.6 9.53 12.54 7.11 10.03 9.53 45.19 4.74 165.7 -7.12 -92.89 118.85 7.54 9.52 57.73 4.74 10.06 4.76 42.67 42.79 10.03 4.76 15.08 4.76 27.6 4.76 15.08 4.74 30.11 23.79 67.79 35.66 20.08 4.74 32.65 -4.74 95.41 -85.59 45.19 -68.95 30.11 -21.38 128.03 -66.57 120.52 -38.05z"/>
   <polygon class="fil0 str0" points="36224.24,17752.04 36221.72,17742.52 36209.18,17699.73 36206.67,17675.95 36211.7,17642.69 36216.7,17609.4 36216.7,17588 36216.7,17576.12 36214.18,17566.6 36194.1,17549.95 36118.8,17528.57 36101.23,17526.19 36091.18,17519.05 36063.55,17478.65 36043.47,17464.39 36028.42,17476.27 36013.34,17495.29 35988.25,17497.67 35900.39,17481.03 35830.09,17459.62 35789.92,17462.01 35759.79,17466.77 35724.65,17462.01 35712.08,17457.24 35699.54,17450.13 35641.78,17374.03 35629.24,17352.65 35616.67,17340.77 35599.11,17331.25 35523.8,17307.49 35501.21,17305.11 35483.61,17307.49 35476.1,17312.23 35463.53,17309.87 35443.45,17305.11 35403.29,17283.7 35388.24,17283.7 35380.7,17290.85 35378.19,17321.75 35370.67,17319.37 35355.59,17297.96 35325.48,17240.92 35280.29,17179.11 35322.97,17138.68 35300.37,17093.52 35282.78,17072.14 35280.29,17057.85 35287.81,17048.36 35335.51,17005.57 35353.08,16993.67 35373.16,16967.53 35523.8,16929.48 35571.48,16950.88 35631.75,16924.74 35649.32,16919.98 35681.95,16919.98 35717.11,16922.36 35757.27,16917.6 35948.06,16962.76 35973.17,16965.14 35998.28,16960.41 36086.15,16958.03 36106.23,16953.26 36116.29,16948.5 36121.31,16946.12 36133.85,16936.62 36168.99,16784.49 36176.53,16753.58 36259.37,16729.8 36314.62,16722.68 36324.65,16713.16 36342.24,16665.61 36349.75,16653.73 36377.38,16632.33 36394.95,16644.21 36437.62,16706.04 36467.76,16725.04 36510.44,16736.94 36588.28,16744.06 36595.79,16748.82 36598.3,16755.94 36598.3,16765.46 36595.79,16777.34 36595.79,16820.13 36623.41,16832.03 36658.55,16834.39 36688.69,16846.29 36748.93,16939 36794.12,16984.17 36851.88,17007.95 36914.64,17015.07 37102.92,16998.43 37158.16,17015.07 37165.68,17067.38 37160.68,17098.28 37180.76,17095.9 37248.54,17050.74 37356.49,17003.19 37379.09,17017.45 37399.17,17045.97 37429.31,17065 37514.66,17060.24 37559.85,17069.76 37567.37,17105.4 37522.18,17162.47 37454.39,17200.49 37316.33,17248.04 37190.79,17321.75 37085.35,17347.89 37035.13,17369.3 36999.99,17419.22 36982.43,17540.45 36939.75,17559.48 36887.02,17535.69 36859.4,17535.69 36849.37,17566.6 36846.85,17592.76 36839.31,17618.9 36826.77,17640.31 36804.18,17659.31 36746.42,17661.69 36643.5,17595.14 36588.28,17588 36545.57,17566.6 36497.89,17514.31 36447.68,17473.89 36405,17492.91 36399.97,17521.43 36432.62,17571.36 36430.11,17604.64 36422.57,17635.55 36422.57,17654.57 36435.11,17671.21 36497.89,17713.99 36512.95,17752.04 36512.95,17794.83 36495.38,17839.99 36465.25,17878.04 36432.62,17885.15 36392.43,17870.89 36307.08,17823.35 36284.48,17816.23 36219.21,17818.58 36199.13,17811.47 36206.67,17794.83 36224.24,17790.06 36249.35,17787.68 36269.43,17782.95 36276.97,17763.92 36261.89,17752.04 36236.78,17749.66 "/>
  </g>
 </g>
</svg>
