<svg width="48" height="48" viewBox="0 0 48 48" fill="none" xmlns="http://www.w3.org/2000/svg">
<rect width="48" height="48" rx="12" fill="white"/>
<path d="M29.4102 20.6318L29.3701 18.2314C29.3659 17.8171 29.0561 17.4845 28.6523 17.4443L28.5703 17.4404H28.5625L25.8623 17.4805H25.8613C23.9875 17.5143 22.4823 19.0035 22.4219 20.8584L22.4199 21.0391L22.4688 23.7881L22.4619 23.79L21.2803 23.8096C20.8341 23.8096 20.4805 24.1642 20.4805 24.6104H20.4795L20.4805 24.6182L20.5098 26.5176C20.5137 26.96 20.8662 27.3093 21.3096 27.3096V27.3105L21.3184 27.3096L22.5098 27.29C22.5137 27.29 22.5154 27.2909 22.5156 27.291L22.5176 27.292C22.5184 27.2928 22.5191 27.294 22.5195 27.2949L22.5205 27.2988L22.6104 32.9883V32.9893C22.6152 33.2706 22.3892 33.4998 22.1104 33.5H19.8096C18.0892 33.4999 16.776 32.9891 15.8936 32.1055C15.011 31.2217 14.5 29.9056 14.5 28.1797V19.8096C14.5001 18.0892 15.011 16.7761 15.8936 15.8936C16.7761 15.011 18.0892 14.5001 19.8096 14.5H28.1904C29.9108 14.5001 31.2239 15.011 32.1064 15.8936C32.989 16.7761 33.4999 18.0892 33.5 19.8096V28.1904C33.4999 29.9108 32.989 31.2239 32.1064 32.1064C31.2239 32.989 29.9108 33.4999 28.1904 33.5H27C26.7261 33.5 26.5 33.2739 26.5 33V27.2285L28.2588 27.2002H28.2725L28.2852 27.1992C28.6396 27.1739 28.9511 26.9195 29.0293 26.5547L29.0303 26.5479L29.0322 26.54L29.3818 24.6299L29.3828 24.6221C29.4585 24.168 29.1343 23.7461 28.6816 23.6953L28.5898 23.6904H28.583L26.4531 23.7188L26.4521 23.7178C26.4513 23.7169 26.4506 23.7157 26.4502 23.7148L26.4492 23.7139L26.4131 21.4756L28.6104 21.4395V21.4404C29.0563 21.4402 29.4102 21.0857 29.4102 20.6396V20.6318Z" fill="#0E4611" stroke="#0E4611"/>
</svg>
